<svg xmlns="http://www.w3.org/2000/svg" xmlns:xlink="http://www.w3.org/1999/xlink" width="500" zoomAndPan="magnify" viewBox="0 0 375 374.999991" height="500" preserveAspectRatio="xMidYMid meet" version="1.0"><defs><g/></defs><g fill="#000000" fill-opacity="1"><g transform="translate(29.150538, 214.160549)"><g><path d="M 26.34375 -32.636719 C 26.097656 -38.140625 26.160156 -43.644531 26.511719 -49.148438 C 26.882812 -54.925781 27.875 -60.738281 28.019531 -66.511719 C 28.042969 -67.238281 26.675781 -67.796875 26.199219 -67.257812 C 22.804688 -63.472656 21.605469 -57.800781 20.445312 -53 C 19.101562 -47.472656 18.171875 -41.867188 17.199219 -36.257812 C 16.886719 -34.519531 16.597656 -32.78125 16.265625 -31.042969 C 16.203125 -30.730469 15.8125 -28.765625 15.832031 -28.765625 C 15.3125 -28.890625 15.3125 -29.882812 15.273438 -30.214844 C 14.898438 -33.277344 14.777344 -36.382812 14.488281 -39.464844 C 13.90625 -45.652344 13.265625 -51.839844 12.644531 -58.027344 C 12.582031 -58.523438 11.464844 -58.917969 11.421875 -58.277344 C 10.699219 -47.679688 9.871094 -37.085938 8.855469 -26.53125 C 8.628906 -24.152344 8.382812 -21.769531 7.988281 -19.410156 C 7.574219 -16.96875 7.140625 -14.011719 5.878906 -11.835938 C 4.71875 -9.808594 3.808594 -12.148438 3.394531 -13.328125 C 2.960938 -14.546875 2.648438 -15.8125 2.460938 -17.09375 C 2.109375 -19.742188 2.359375 -22.414062 2.917969 -24.980469 C 2.980469 -25.351562 2.214844 -25.703125 2.089844 -25.308594 C 1.199219 -22.742188 0.953125 -20.074219 1.28125 -17.34375 C 1.550781 -15.273438 2.046875 -12.085938 3.621094 -10.535156 C 7.097656 -7.117188 8.527344 -16.886719 8.816406 -18.523438 C 9.890625 -24.875 10.242188 -31.375 10.84375 -37.789062 C 11.238281 -42.175781 11.609375 -46.542969 12.003906 -50.929688 C 12.335938 -46.832031 12.664062 -42.734375 12.996094 -38.636719 C 13.246094 -35.78125 13.308594 -32.738281 13.886719 -29.925781 C 14.175781 -28.433594 14.960938 -27.316406 16.535156 -27.234375 C 16.785156 -27.214844 16.992188 -27.339844 17.03125 -27.585938 C 18.085938 -34.5 19.203125 -41.429688 20.613281 -48.261719 C 21.253906 -51.363281 22 -54.449219 22.910156 -57.492188 C 23.570312 -59.683594 24.253906 -61.980469 25.539062 -63.84375 C 24.917969 -59.394531 24.648438 -54.820312 24.335938 -50.371094 C 23.945312 -44.492188 23.859375 -38.617188 24.128906 -32.738281 C 24.667969 -21.355469 26.242188 -9.726562 30.257812 0.972656 C 30.402344 1.367188 31.375 1.59375 31.25 0.992188 C 29.097656 -10.183594 26.863281 -21.253906 26.34375 -32.636719 Z M 26.34375 -32.636719 "/></g></g></g><g fill="#000000" fill-opacity="1"><g transform="translate(61.471605, 214.160549)"><g><path d="M 14.238281 -20.652344 C 17.34375 -19.203125 19.226562 -25.125 19.617188 -27.152344 C 19.703125 -27.484375 19.121094 -27.730469 18.9375 -27.441406 C 18.171875 -26.242188 17.570312 -25 16.867188 -23.777344 C 16.578125 -23.28125 16.121094 -22.183594 15.605469 -21.894531 C 14.175781 -21.089844 14.15625 -22.742188 14.03125 -23.59375 C 13.722656 -25.953125 14.113281 -28.25 13.039062 -30.441406 C 12.6875 -31.144531 11.421875 -31.703125 10.90625 -30.898438 C 9.355469 -28.496094 8.402344 -25.847656 7.386719 -23.199219 C 6.539062 -21.003906 5.503906 -17.589844 3.539062 -16.078125 C 3.3125 -15.6875 2.960938 -15.519531 2.484375 -15.625 C 1.964844 -15.335938 1.675781 -15.460938 1.675781 -15.996094 C 1.160156 -16.578125 1.222656 -18.191406 1.160156 -18.957031 C 1.015625 -20.507812 1.054688 -22.0625 1.222656 -23.613281 C 1.40625 -25.476562 1.800781 -27.296875 2.277344 -29.117188 C 2.628906 -30.484375 0.433594 -31.105469 -0.0195312 -29.261719 C -0.539062 -27.214844 -0.929688 -25.101562 -1.074219 -22.992188 C -1.261719 -20.34375 -1.550781 -14.777344 1.675781 -13.699219 C 4.90625 -12.644531 6.996094 -16.679688 8.113281 -18.996094 C 9.4375 -21.730469 10.304688 -24.625 11.570312 -27.359375 C 11.796875 -24.730469 11.796875 -21.792969 14.238281 -20.652344 Z M 14.238281 -20.652344 "/></g></g></g><g fill="#000000" fill-opacity="1"><g transform="translate(80.570418, 214.160549)"><g><path d="M 1.34375 -19.265625 C 1.820312 -18.191406 2.792969 -17.28125 4.035156 -17.28125 C 5.960938 -17.257812 7.222656 -19.371094 7.882812 -20.902344 C 8.320312 -21.875 8.753906 -23.714844 9.707031 -24.296875 C 12.023438 -25.785156 13.058594 -22.578125 13.722656 -21.191406 C 14.464844 -19.640625 15.355469 -18.085938 17.113281 -17.613281 C 21.6875 -16.347656 23.199219 -22.019531 23.632812 -25.269531 C 23.675781 -25.496094 23.179688 -25.640625 23.136719 -25.394531 C 22.804688 -23.34375 22.390625 -20.964844 20.796875 -19.496094 C 19.515625 -18.292969 17.40625 -17.796875 16.058594 -19.390625 C 15.417969 -20.15625 15.167969 -21.273438 14.839844 -22.183594 C 14.09375 -24.214844 12.292969 -26.550781 9.828125 -26.179688 C 8.589844 -26.011719 7.800781 -25.0625 7.179688 -24.046875 C 6.726562 -23.28125 4.699219 -18.625 3.457031 -19.226562 C 2.980469 -19.453125 2.875 -21.730469 2.816406 -22.164062 C 2.667969 -23.136719 2.546875 -24.128906 2.460938 -25.101562 C 2.402344 -25.847656 2.359375 -26.59375 2.316406 -27.339844 C 8.113281 -34.269531 11.796875 -43.210938 13.328125 -52.027344 C 13.699219 -54.179688 13.925781 -56.351562 14.09375 -58.546875 C 14.21875 -60.46875 14.609375 -62.808594 13.824219 -64.671875 C 13.367188 -65.707031 12.480469 -66.574219 11.320312 -66.679688 C 9.664062 -66.824219 8.628906 -65.519531 7.824219 -64.300781 C 5.171875 -60.203125 3.992188 -55.398438 2.898438 -50.703125 C 1.675781 -45.464844 0.664062 -40.148438 0.269531 -34.746094 C 0.0625 -32.179688 0.0195312 -29.59375 0.164062 -27.027344 C 0.308594 -24.605469 0.351562 -21.523438 1.34375 -19.265625 Z M 2.296875 -31.726562 C 2.609375 -40.148438 4.261719 -48.964844 6.933594 -56.972656 C 7.53125 -58.816406 8.277344 -60.636719 9.25 -62.332031 C 9.683594 -63.078125 10.140625 -64.03125 10.824219 -64.609375 C 12.355469 -65.890625 13.078125 -63.738281 13.285156 -62.457031 C 13.84375 -58.9375 13.246094 -54.984375 12.644531 -51.507812 C 11.09375 -42.714844 7.386719 -34.953125 2.316406 -27.710938 C 2.253906 -29.054688 2.253906 -30.378906 2.296875 -31.726562 Z M 2.296875 -31.726562 "/></g></g></g><g fill="#000000" fill-opacity="1"><g transform="translate(103.724883, 214.160549)"><g><path d="M 0.0820312 -16.824219 C 2.109375 -15.789062 3.890625 -17.363281 5.070312 -18.894531 C 5.878906 -19.910156 6.601562 -20.984375 7.265625 -22.101562 C 7.863281 -23.09375 8.816406 -24.441406 9.230469 -25.640625 C 9.25 -24.957031 9.292969 -24.296875 9.375 -23.632812 C 9.519531 -22.453125 9.644531 -21.046875 10.304688 -20.054688 C 13.78125 -14.734375 17.527344 -25.394531 18.292969 -27.460938 C 18.335938 -27.585938 18.046875 -27.710938 18.003906 -27.585938 C 17.40625 -26.074219 16.699219 -24.792969 15.789062 -23.449219 C 15.210938 -22.578125 13.429688 -19.761719 12.625 -19.761719 C 11.859375 -19.761719 11.671875 -22.226562 11.628906 -22.804688 C 11.546875 -23.921875 11.546875 -25.039062 11.421875 -26.160156 C 11.257812 -27.421875 10.492188 -28.539062 9.085938 -28.621094 C 7.925781 -28.703125 6.765625 -25.972656 6.125 -24.730469 C 5.320312 -23.179688 3.226562 -18.148438 1.34375 -18.730469 C 0.765625 -18.914062 0.332031 -19.578125 0.289062 -20.53125 C 0.25 -21.234375 0.308594 -21.9375 0.414062 -22.621094 C 0.621094 -24.066406 1.136719 -25.496094 1.71875 -26.839844 C 2.710938 -29.078125 3.890625 -31.496094 5.710938 -33.195312 C 6.765625 -34.167969 8.277344 -35.078125 9.789062 -34.953125 C 11.691406 -34.828125 12.1875 -33.214844 13.015625 -31.847656 C 13.222656 -31.519531 13.90625 -31.332031 14.132812 -31.703125 C 14.132812 -31.703125 14.671875 -34.148438 11.714844 -35.925781 C 9.914062 -37.023438 7.59375 -36.734375 5.753906 -35.78125 C 3.558594 -34.664062 2.152344 -32.574219 0.992188 -30.484375 C -0.394531 -28 -1.636719 -25.269531 -1.882812 -22.390625 C -2.070312 -20.425781 -1.902344 -17.816406 0.0820312 -16.824219 Z M 0.0820312 -16.824219 "/></g></g></g><g fill="#000000" fill-opacity="1"><g transform="translate(121.623554, 214.160549)"><g><path d="M 8.691406 -23.300781 C 8.796875 -24.730469 9.0625 -26.160156 9.042969 -27.605469 C 9.042969 -28.890625 8.734375 -31.207031 6.996094 -31.3125 C 6.457031 -31.332031 6.351562 -31.167969 5.9375 -30.835938 C 3.808594 -29.242188 1.695312 -21.832031 1.28125 -21.253906 C 1.117188 -24.605469 1.367188 -27.898438 2.441406 -31.1875 C 2.753906 -32.160156 0.578125 -32.988281 0.308594 -32.035156 C -0.890625 -27.8125 -1.429688 -23.386719 -0.601562 -19.019531 C -0.457031 -18.210938 0.929688 -17.589844 1.449219 -18.398438 C 2.421875 -19.867188 2.609375 -22 3.105469 -23.652344 C 3.664062 -25.476562 4.90625 -28.722656 5.878906 -29.613281 C 6.332031 -30.027344 6.621094 -30.378906 6.972656 -29.695312 C 7.140625 -29.367188 6.953125 -28.351562 6.933594 -28.042969 C 6.871094 -26.964844 6.765625 -25.890625 6.664062 -24.8125 C 6.4375 -22.640625 6.1875 -20.550781 7.222656 -18.5625 C 7.367188 -18.253906 7.71875 -18.003906 8.070312 -18.023438 C 9.375 -18.128906 9.789062 -19.289062 10.078125 -20.425781 C 10.574219 -22.269531 11.175781 -23.945312 11.671875 -25.785156 C 12.519531 -28.910156 13.84375 -32.945312 15.230469 -35.53125 C 15.292969 -34.125 14.984375 -32.738281 14.734375 -31.332031 C 14.382812 -29.34375 14.132812 -27.359375 13.949219 -25.351562 C 13.699219 -22.414062 12.953125 -17.695312 15.148438 -15.273438 C 19.703125 -10.285156 22.476562 -25.019531 22.804688 -27.234375 C 22.828125 -27.316406 22.597656 -27.398438 22.578125 -27.296875 C 21.957031 -24.605469 21.128906 -21.976562 19.949219 -19.472656 C 19.640625 -18.832031 19.328125 -18.171875 18.957031 -17.550781 C 18.75 -17.136719 18.480469 -16.742188 18.171875 -16.371094 C 17.796875 -15.996094 17.011719 -15.726562 16.492188 -16.410156 C 16.078125 -16.679688 15.996094 -18.523438 15.957031 -18.976562 C 15.894531 -19.679688 15.914062 -20.382812 15.933594 -21.089844 C 16.019531 -23.859375 16.265625 -26.65625 16.660156 -29.386719 C 17.03125 -32.035156 17.839844 -34.644531 16.929688 -37.25 C 16.742188 -37.832031 15.398438 -38.449219 14.898438 -37.683594 C 13.660156 -35.761719 12.4375 -31.847656 11.570312 -28.746094 C 11.363281 -28.042969 9.726562 -21.460938 8.628906 -19.515625 C 8.652344 -20.777344 8.589844 -22.039062 8.691406 -23.300781 Z M 8.691406 -23.300781 "/></g></g></g><g fill="#000000" fill-opacity="1"><g transform="translate(144.033104, 214.160549)"><g><path d="M 8.691406 -23.300781 C 8.796875 -24.730469 9.0625 -26.160156 9.042969 -27.605469 C 9.042969 -28.890625 8.734375 -31.207031 6.996094 -31.3125 C 6.457031 -31.332031 6.351562 -31.167969 5.9375 -30.835938 C 3.808594 -29.242188 1.695312 -21.832031 1.28125 -21.253906 C 1.117188 -24.605469 1.367188 -27.898438 2.441406 -31.1875 C 2.753906 -32.160156 0.578125 -32.988281 0.308594 -32.035156 C -0.890625 -27.8125 -1.429688 -23.386719 -0.601562 -19.019531 C -0.457031 -18.210938 0.929688 -17.589844 1.449219 -18.398438 C 2.421875 -19.867188 2.609375 -22 3.105469 -23.652344 C 3.664062 -25.476562 4.90625 -28.722656 5.878906 -29.613281 C 6.332031 -30.027344 6.621094 -30.378906 6.972656 -29.695312 C 7.140625 -29.367188 6.953125 -28.351562 6.933594 -28.042969 C 6.871094 -26.964844 6.765625 -25.890625 6.664062 -24.8125 C 6.4375 -22.640625 6.1875 -20.550781 7.222656 -18.5625 C 7.367188 -18.253906 7.71875 -18.003906 8.070312 -18.023438 C 9.375 -18.128906 9.789062 -19.289062 10.078125 -20.425781 C 10.574219 -22.269531 11.175781 -23.945312 11.671875 -25.785156 C 12.519531 -28.910156 13.84375 -32.945312 15.230469 -35.53125 C 15.292969 -34.125 14.984375 -32.738281 14.734375 -31.332031 C 14.382812 -29.34375 14.132812 -27.359375 13.949219 -25.351562 C 13.699219 -22.414062 12.953125 -17.695312 15.148438 -15.273438 C 19.703125 -10.285156 22.476562 -25.019531 22.804688 -27.234375 C 22.828125 -27.316406 22.597656 -27.398438 22.578125 -27.296875 C 21.957031 -24.605469 21.128906 -21.976562 19.949219 -19.472656 C 19.640625 -18.832031 19.328125 -18.171875 18.957031 -17.550781 C 18.75 -17.136719 18.480469 -16.742188 18.171875 -16.371094 C 17.796875 -15.996094 17.011719 -15.726562 16.492188 -16.410156 C 16.078125 -16.679688 15.996094 -18.523438 15.957031 -18.976562 C 15.894531 -19.679688 15.914062 -20.382812 15.933594 -21.089844 C 16.019531 -23.859375 16.265625 -26.65625 16.660156 -29.386719 C 17.03125 -32.035156 17.839844 -34.644531 16.929688 -37.25 C 16.742188 -37.832031 15.398438 -38.449219 14.898438 -37.683594 C 13.660156 -35.761719 12.4375 -31.847656 11.570312 -28.746094 C 11.363281 -28.042969 9.726562 -21.460938 8.628906 -19.515625 C 8.652344 -20.777344 8.589844 -22.039062 8.691406 -23.300781 Z M 8.691406 -23.300781 "/></g></g></g><g fill="#000000" fill-opacity="1"><g transform="translate(166.442653, 214.160549)"><g><path d="M 0.0820312 -16.824219 C 2.109375 -15.789062 3.890625 -17.363281 5.070312 -18.894531 C 5.878906 -19.910156 6.601562 -20.984375 7.265625 -22.101562 C 7.863281 -23.09375 8.816406 -24.441406 9.230469 -25.640625 C 9.25 -24.957031 9.292969 -24.296875 9.375 -23.632812 C 9.519531 -22.453125 9.644531 -21.046875 10.304688 -20.054688 C 13.78125 -14.734375 17.527344 -25.394531 18.292969 -27.460938 C 18.335938 -27.585938 18.046875 -27.710938 18.003906 -27.585938 C 17.40625 -26.074219 16.699219 -24.792969 15.789062 -23.449219 C 15.210938 -22.578125 13.429688 -19.761719 12.625 -19.761719 C 11.859375 -19.761719 11.671875 -22.226562 11.628906 -22.804688 C 11.546875 -23.921875 11.546875 -25.039062 11.421875 -26.160156 C 11.257812 -27.421875 10.492188 -28.539062 9.085938 -28.621094 C 7.925781 -28.703125 6.765625 -25.972656 6.125 -24.730469 C 5.320312 -23.179688 3.226562 -18.148438 1.34375 -18.730469 C 0.765625 -18.914062 0.332031 -19.578125 0.289062 -20.53125 C 0.25 -21.234375 0.308594 -21.9375 0.414062 -22.621094 C 0.621094 -24.066406 1.136719 -25.496094 1.71875 -26.839844 C 2.710938 -29.078125 3.890625 -31.496094 5.710938 -33.195312 C 6.765625 -34.167969 8.277344 -35.078125 9.789062 -34.953125 C 11.691406 -34.828125 12.1875 -33.214844 13.015625 -31.847656 C 13.222656 -31.519531 13.90625 -31.332031 14.132812 -31.703125 C 14.132812 -31.703125 14.671875 -34.148438 11.714844 -35.925781 C 9.914062 -37.023438 7.59375 -36.734375 5.753906 -35.78125 C 3.558594 -34.664062 2.152344 -32.574219 0.992188 -30.484375 C -0.394531 -28 -1.636719 -25.269531 -1.882812 -22.390625 C -2.070312 -20.425781 -1.902344 -17.816406 0.0820312 -16.824219 Z M 0.0820312 -16.824219 "/></g></g></g><g fill="#000000" fill-opacity="1"><g transform="translate(184.341324, 214.160549)"><g><path d="M 2.875 -16.761719 C 5.050781 -17.570312 6.125 -21.128906 6.972656 -23.035156 C 8.652344 -26.757812 9.953125 -30.628906 11.070312 -34.539062 C 11.570312 -34.292969 12.042969 -33.816406 12.4375 -33.050781 C 12.5 -32.945312 12.851562 -32.84375 12.832031 -33.027344 C 12.769531 -34.085938 12.128906 -34.808594 11.277344 -35.242188 C 11.796875 -37.042969 12.273438 -38.863281 12.726562 -40.664062 C 13.78125 -44.804688 14.671875 -49.066406 15.851562 -53.246094 C 15.273438 -48.738281 14.777344 -44.226562 14.21875 -39.734375 C 13.761719 -36.132812 13.308594 -32.511719 12.894531 -28.910156 C 12.5 -25.308594 11.753906 -18.605469 12.1875 -17.941406 C 12.375 -17.632812 12.789062 -17.363281 13.183594 -17.632812 C 14.175781 -18.316406 14.527344 -24.359375 14.941406 -27.691406 C 15.398438 -31.433594 15.8125 -35.179688 16.203125 -38.925781 C 17.011719 -46.292969 17.984375 -53.660156 18.5625 -61.050781 C 18.605469 -61.648438 17.199219 -62.167969 17.03125 -61.527344 C 15.5 -56.0625 13.886719 -50.640625 12.519531 -45.113281 C 11.734375 -41.949219 10.949219 -38.78125 10.058594 -35.636719 C 9.933594 -35.65625 9.828125 -35.679688 9.707031 -35.699219 C 7.449219 -35.90625 5.421875 -34.5 3.953125 -32.925781 C 2.152344 -31 0.808594 -28.640625 0 -26.160156 C -0.703125 -23.945312 -1.40625 -20.941406 -0.664062 -18.667969 C -0.164062 -17.199219 1.324219 -16.183594 2.875 -16.761719 Z M 1.261719 -22.679688 C 1.636719 -25.246094 2.816406 -27.542969 4.199219 -29.738281 C 5.214844 -31.351562 7.617188 -34.476562 9.808594 -34.765625 C 9.25 -32.882812 8.652344 -31 7.988281 -29.160156 C 7.035156 -26.511719 5.980469 -23.902344 4.675781 -21.417969 C 4.304688 -20.675781 2.566406 -16.824219 1.304688 -18.9375 C 0.871094 -19.640625 1.136719 -21.832031 1.261719 -22.679688 Z M 1.261719 -22.679688 "/></g></g></g><g fill="#000000" fill-opacity="1"><g transform="translate(202.550376, 214.160549)"><g/></g></g><g fill="#000000" fill-opacity="1"><g transform="translate(214.510413, 214.160549)"><g><path d="M 38.078125 -71.046875 C 35.96875 -69.515625 35.140625 -67.011719 34.601562 -64.546875 C 33.980469 -61.671875 33.566406 -58.753906 33.257812 -55.835938 C 33.152344 -54.863281 33.050781 -53.910156 32.945312 -52.957031 C 30.277344 -49.832031 27.132812 -47.121094 24.007812 -44.472656 C 21.707031 -42.527344 19.410156 -40.625 17.15625 -38.65625 C 17.28125 -41.101562 17.382812 -43.5625 17.550781 -46.003906 C 17.734375 -49.273438 17.984375 -52.523438 18.316406 -55.792969 C 18.6875 -59.4375 18.875 -63.285156 20.34375 -66.679688 C 20.820312 -67.777344 18.128906 -68.5 18.171875 -67.339844 C 18.230469 -64.527344 17.671875 -61.878906 17.28125 -59.0625 C 16.90625 -56.332031 16.578125 -53.601562 16.308594 -50.847656 C 15.851562 -46.230469 15.542969 -41.597656 15.253906 -36.980469 C 14.09375 -35.945312 12.953125 -34.890625 11.835938 -33.816406 C 8.238281 -30.296875 4.511719 -26.386719 2.277344 -21.8125 C 0.414062 -17.964844 0.125 -13.597656 1.53125 -9.5625 C 2.648438 -6.3125 5.339844 -1.945312 8.917969 -1.015625 C 13.636719 0.207031 14.488281 -5.917969 14.960938 -9.0625 C 15.832031 -14.796875 16.203125 -20.570312 16.554688 -26.34375 C 16.761719 -29.964844 16.929688 -33.609375 17.09375 -37.230469 C 20.488281 -40.25 23.964844 -43.167969 27.277344 -46.230469 C 29.222656 -48.054688 31.125 -49.957031 32.863281 -52.007812 C 32.367188 -46.75 32.035156 -41.472656 31.765625 -36.195312 C 31.105469 -22.972656 30.730469 -9.664062 32.179688 3.519531 C 32.222656 3.933594 33.152344 4.242188 33.152344 3.726562 C 33.585938 -8.917969 33.296875 -21.542969 33.898438 -34.1875 C 34.1875 -40.394531 34.644531 -46.585938 35.160156 -52.75 C 35.242188 -53.621094 35.324219 -54.46875 35.410156 -55.339844 C 35.824219 -55.957031 36.238281 -56.578125 36.628906 -57.242188 C 38.84375 -60.988281 41.101562 -66.410156 39.175781 -70.714844 C 39.011719 -71.109375 38.449219 -71.292969 38.078125 -71.046875 Z M 15.128906 -35.058594 C 14.777344 -29.53125 14.488281 -23.984375 13.988281 -18.480469 C 13.78125 -15.976562 13.492188 -13.472656 13.222656 -10.96875 C 12.976562 -8.527344 13.140625 -4.78125 11.339844 -2.875 C 8.855469 -0.25 5.773438 -4.035156 4.429688 -6.085938 C 3.105469 -8.070312 2.253906 -10.390625 1.945312 -12.746094 C 1.324219 -17.652344 3.3125 -21.976562 6.1875 -25.828125 C 8.835938 -29.367188 11.921875 -32.492188 15.148438 -35.472656 C 15.148438 -35.324219 15.128906 -35.179688 15.128906 -35.058594 Z M 35.492188 -56.25 C 35.699219 -58.070312 35.925781 -59.890625 36.238281 -61.710938 C 36.691406 -64.464844 37.167969 -67.339844 38.679688 -69.742188 C 40.914062 -65.683594 38.078125 -60.015625 35.492188 -56.25 Z M 35.492188 -56.25 "/></g></g></g><g fill="#000000" fill-opacity="1"><g transform="translate(254.425494, 214.160549)"><g><path d="M 0.0820312 -16.824219 C 2.109375 -15.789062 3.890625 -17.363281 5.070312 -18.894531 C 5.878906 -19.910156 6.601562 -20.984375 7.265625 -22.101562 C 7.863281 -23.09375 8.816406 -24.441406 9.230469 -25.640625 C 9.25 -24.957031 9.292969 -24.296875 9.375 -23.632812 C 9.519531 -22.453125 9.644531 -21.046875 10.304688 -20.054688 C 13.78125 -14.734375 17.527344 -25.394531 18.292969 -27.460938 C 18.335938 -27.585938 18.046875 -27.710938 18.003906 -27.585938 C 17.40625 -26.074219 16.699219 -24.792969 15.789062 -23.449219 C 15.210938 -22.578125 13.429688 -19.761719 12.625 -19.761719 C 11.859375 -19.761719 11.671875 -22.226562 11.628906 -22.804688 C 11.546875 -23.921875 11.546875 -25.039062 11.421875 -26.160156 C 11.257812 -27.421875 10.492188 -28.539062 9.085938 -28.621094 C 7.925781 -28.703125 6.765625 -25.972656 6.125 -24.730469 C 5.320312 -23.179688 3.226562 -18.148438 1.34375 -18.730469 C 0.765625 -18.914062 0.332031 -19.578125 0.289062 -20.53125 C 0.25 -21.234375 0.308594 -21.9375 0.414062 -22.621094 C 0.621094 -24.066406 1.136719 -25.496094 1.71875 -26.839844 C 2.710938 -29.078125 3.890625 -31.496094 5.710938 -33.195312 C 6.765625 -34.167969 8.277344 -35.078125 9.789062 -34.953125 C 11.691406 -34.828125 12.1875 -33.214844 13.015625 -31.847656 C 13.222656 -31.519531 13.90625 -31.332031 14.132812 -31.703125 C 14.132812 -31.703125 14.671875 -34.148438 11.714844 -35.925781 C 9.914062 -37.023438 7.59375 -36.734375 5.753906 -35.78125 C 3.558594 -34.664062 2.152344 -32.574219 0.992188 -30.484375 C -0.394531 -28 -1.636719 -25.269531 -1.882812 -22.390625 C -2.070312 -20.425781 -1.902344 -17.816406 0.0820312 -16.824219 Z M 0.0820312 -16.824219 "/></g></g></g><g fill="#000000" fill-opacity="1"><g transform="translate(272.324155, 214.160549)"><g><path d="M 18.5 -27.566406 C 18.9375 -27.691406 18.480469 -28.144531 18.191406 -28.125 C 14.714844 -27.957031 11.753906 -26.324219 9.1875 -24.046875 C 7.84375 -25.476562 6.457031 -26.863281 5.296875 -28.332031 C 2.546875 -31.808594 1.074219 -36.566406 3.375 -40.726562 C 3.910156 -41.699219 4.863281 -42.859375 5.960938 -43.230469 C 8.238281 -43.996094 8.917969 -41.617188 9.105469 -40.023438 C 9.4375 -37.230469 8.878906 -34.207031 8.007812 -31.582031 C 7.863281 -31.125 8.816406 -30.730469 9.003906 -31.167969 C 10.472656 -34.601562 12.335938 -38.328125 10.65625 -42.050781 C 9.582031 -44.453125 6.871094 -45.777344 4.386719 -44.679688 C 1.386719 -43.355469 0.101562 -39.777344 0.0625 -36.691406 C 0 -33.503906 1.324219 -30.628906 3.25 -28.144531 C 4.59375 -26.386719 6.375 -24.710938 8.007812 -22.949219 C 5.792969 -20.714844 3.910156 -18.085938 2.296875 -15.667969 C -0.308594 -11.753906 -6.207031 -0.890625 2.316406 0.207031 C 5.753906 0.664062 8.980469 -1.945312 11.15625 -4.347656 C 13.367188 -6.808594 15.023438 -10.015625 14.941406 -13.390625 C 14.839844 -17.28125 12.6875 -20.238281 10.183594 -22.972656 C 12.5625 -25.101562 15.273438 -26.695312 18.5 -27.566406 Z M 12.6875 -12.664062 C 12.3125 -8.773438 9.582031 -5.320312 6.519531 -3.0625 C 4.71875 -1.757812 1.28125 0 -0.164062 -2.753906 C -1.179688 -4.675781 -0.144531 -7.472656 0.601562 -9.332031 C 2.214844 -13.429688 4.964844 -17.28125 7.824219 -20.570312 C 8.214844 -21.027344 8.609375 -21.441406 9.003906 -21.855469 C 11.277344 -19.203125 13.058594 -16.328125 12.6875 -12.664062 Z M 12.6875 -12.664062 "/></g></g></g><g fill="#000000" fill-opacity="1"><g transform="translate(290.305584, 214.160549)"><g><path d="M 18.5 -27.566406 C 18.9375 -27.691406 18.480469 -28.144531 18.191406 -28.125 C 14.714844 -27.957031 11.753906 -26.324219 9.1875 -24.046875 C 7.84375 -25.476562 6.457031 -26.863281 5.296875 -28.332031 C 2.546875 -31.808594 1.074219 -36.566406 3.375 -40.726562 C 3.910156 -41.699219 4.863281 -42.859375 5.960938 -43.230469 C 8.238281 -43.996094 8.917969 -41.617188 9.105469 -40.023438 C 9.4375 -37.230469 8.878906 -34.207031 8.007812 -31.582031 C 7.863281 -31.125 8.816406 -30.730469 9.003906 -31.167969 C 10.472656 -34.601562 12.335938 -38.328125 10.65625 -42.050781 C 9.582031 -44.453125 6.871094 -45.777344 4.386719 -44.679688 C 1.386719 -43.355469 0.101562 -39.777344 0.0625 -36.691406 C 0 -33.503906 1.324219 -30.628906 3.25 -28.144531 C 4.59375 -26.386719 6.375 -24.710938 8.007812 -22.949219 C 5.792969 -20.714844 3.910156 -18.085938 2.296875 -15.667969 C -0.308594 -11.753906 -6.207031 -0.890625 2.316406 0.207031 C 5.753906 0.664062 8.980469 -1.945312 11.15625 -4.347656 C 13.367188 -6.808594 15.023438 -10.015625 14.941406 -13.390625 C 14.839844 -17.28125 12.6875 -20.238281 10.183594 -22.972656 C 12.5625 -25.101562 15.273438 -26.695312 18.5 -27.566406 Z M 12.6875 -12.664062 C 12.3125 -8.773438 9.582031 -5.320312 6.519531 -3.0625 C 4.71875 -1.757812 1.28125 0 -0.164062 -2.753906 C -1.179688 -4.675781 -0.144531 -7.472656 0.601562 -9.332031 C 2.214844 -13.429688 4.964844 -17.28125 7.824219 -20.570312 C 8.214844 -21.027344 8.609375 -21.441406 9.003906 -21.855469 C 11.277344 -19.203125 13.058594 -16.328125 12.6875 -12.664062 Z M 12.6875 -12.664062 "/></g></g></g><g fill="#000000" fill-opacity="1"><g transform="translate(308.287013, 214.160549)"><g><path d="M 0.0820312 -16.824219 C 2.109375 -15.789062 3.890625 -17.363281 5.070312 -18.894531 C 5.878906 -19.910156 6.601562 -20.984375 7.265625 -22.101562 C 7.863281 -23.09375 8.816406 -24.441406 9.230469 -25.640625 C 9.25 -24.957031 9.292969 -24.296875 9.375 -23.632812 C 9.519531 -22.453125 9.644531 -21.046875 10.304688 -20.054688 C 13.78125 -14.734375 17.527344 -25.394531 18.292969 -27.460938 C 18.335938 -27.585938 18.046875 -27.710938 18.003906 -27.585938 C 17.40625 -26.074219 16.699219 -24.792969 15.789062 -23.449219 C 15.210938 -22.578125 13.429688 -19.761719 12.625 -19.761719 C 11.859375 -19.761719 11.671875 -22.226562 11.628906 -22.804688 C 11.546875 -23.921875 11.546875 -25.039062 11.421875 -26.160156 C 11.257812 -27.421875 10.492188 -28.539062 9.085938 -28.621094 C 7.925781 -28.703125 6.765625 -25.972656 6.125 -24.730469 C 5.320312 -23.179688 3.226562 -18.148438 1.34375 -18.730469 C 0.765625 -18.914062 0.332031 -19.578125 0.289062 -20.53125 C 0.25 -21.234375 0.308594 -21.9375 0.414062 -22.621094 C 0.621094 -24.066406 1.136719 -25.496094 1.71875 -26.839844 C 2.710938 -29.078125 3.890625 -31.496094 5.710938 -33.195312 C 6.765625 -34.167969 8.277344 -35.078125 9.789062 -34.953125 C 11.691406 -34.828125 12.1875 -33.214844 13.015625 -31.847656 C 13.222656 -31.519531 13.90625 -31.332031 14.132812 -31.703125 C 14.132812 -31.703125 14.671875 -34.148438 11.714844 -35.925781 C 9.914062 -37.023438 7.59375 -36.734375 5.753906 -35.78125 C 3.558594 -34.664062 2.152344 -32.574219 0.992188 -30.484375 C -0.394531 -28 -1.636719 -25.269531 -1.882812 -22.390625 C -2.070312 -20.425781 -1.902344 -17.816406 0.0820312 -16.824219 Z M 0.0820312 -16.824219 "/></g></g></g><g fill="#000000" fill-opacity="1"><g transform="translate(326.185674, 214.160549)"><g><path d="M 3.269531 -17.902344 C 5.214844 -18.730469 5.648438 -22.722656 6.1875 -24.460938 C 6.601562 -25.785156 7.097656 -27.109375 7.699219 -28.371094 C 8.070312 -29.117188 8.546875 -30.277344 9.1875 -30.816406 C 10.285156 -31.746094 10.347656 -31.230469 10.328125 -30.109375 C 10.203125 -26.386719 9.582031 -22.660156 9.871094 -18.894531 C 9.996094 -17.136719 10.035156 -13.347656 12.542969 -13.183594 C 14.632812 -13.058594 14.464844 -17.074219 14.671875 -18.5 C 15.253906 -22.597656 16.992188 -25.746094 21.148438 -27.027344 C 21.417969 -27.132812 21.109375 -27.378906 20.921875 -27.359375 C 15.480469 -26.28125 14.195312 -20.839844 13.183594 -16.203125 C 13.101562 -15.769531 12.976562 -15.355469 12.851562 -14.941406 C 12.832031 -14.339844 12.769531 -14.339844 12.625 -14.960938 C 12.230469 -15.625 12.210938 -16.929688 12.128906 -17.695312 C 11.941406 -19.433594 11.960938 -21.191406 12.042969 -22.929688 C 12.128906 -24.667969 12.3125 -26.425781 12.417969 -28.164062 C 12.480469 -29.285156 12.746094 -30.585938 12.210938 -31.621094 C 11.609375 -32.84375 10.140625 -33.277344 9.25 -32.160156 C 8.566406 -31.3125 8.03125 -30.050781 7.492188 -29.078125 C 6.890625 -27.9375 6.414062 -26.738281 5.960938 -25.539062 C 5.484375 -24.316406 4.964844 -23.117188 4.429688 -21.914062 C 4.140625 -21.273438 3.871094 -20.796875 3.394531 -19.761719 C 3.125 -19.289062 2.710938 -18.769531 2.296875 -18.976562 C 2.171875 -19.390625 2.089844 -19.804688 2.007812 -20.21875 C 1.46875 -23.613281 1.964844 -27.191406 3.0625 -30.421875 C 3.375 -31.351562 1.304688 -32.179688 0.992188 -31.25 C -0.144531 -27.980469 -0.828125 -24.128906 -0.164062 -20.675781 C 0.125 -19.183594 1.46875 -17.136719 3.269531 -17.902344 Z M 3.269531 -17.902344 "/></g></g></g></svg>